<svg width="306" height="306" viewBox="0 0 306 306" fill="none" xmlns="http://www.w3.org/2000/svg">
    <path d="M306 153C306 132.908 302.043 113.012 294.354 94.4494C286.665 75.8866 275.395 59.02 261.187 44.8127C246.98 30.6053 230.113 19.3354 211.551 11.6464C192.988 3.95746 173.092 -8.7826e-07 153 0L153 61.0437C165.076 61.0437 177.033 63.4222 188.19 68.0435C199.347 72.6647 209.484 79.4382 218.023 87.9771C226.562 96.516 233.335 106.653 237.957 117.81C242.578 128.967 244.956 140.924 244.956 153H306Z"
          fill="#83BDDE"/>
    <path d="M306 153C306 183.261 297.027 212.842 280.215 238.002C263.403 263.163 239.508 282.773 211.551 294.354C183.593 305.934 152.83 308.964 123.151 303.06C93.4721 297.157 66.2101 282.585 44.8127 261.187C23.4152 239.79 8.84339 212.528 2.93985 182.849C-2.96369 153.17 0.0662239 122.407 11.6464 94.4494C23.2266 66.4923 42.837 42.597 67.9978 25.7851C93.1585 8.97329 122.739 -3.60853e-07 153 0L153 38.5754C130.369 38.5754 108.246 45.2862 89.4291 57.8594C70.612 70.4325 55.9459 88.3032 47.2854 109.212C38.6249 130.12 36.3589 153.127 40.774 175.323C45.1891 197.519 56.087 217.908 72.0896 233.91C88.0921 249.913 108.481 260.811 130.677 265.226C152.873 269.641 175.88 267.375 196.788 258.715C217.697 250.054 235.567 235.388 248.141 216.571C260.714 197.754 267.425 175.631 267.425 153H306Z"
          fill="#6EA9CA"/>
    <circle cx="153" cy="153" r="47" fill="#83BDDE"/>
</svg>