<?xml version="1.0" encoding="UTF-8" standalone="no"?>
<!-- Created with Inkscape (http://www.inkscape.org/) -->

<svg
   width="43.349335mm"
   height="43.349735mm"
   viewBox="0 0 43.349335 43.349735"
   version="1.1"
   id="svg5"
  xmlns="http://www.w3.org/2000/svg">
  <defs
     id="defs2" />
  <g
     id="layer1"
     transform="translate(-76.693031,-146.76125)">
    <rect
       style="fill:#83bdde;fill-rule:evenodd;stroke-width:0.264583;fill-opacity:1;opacity:1"
       id="rect611"
       width="43.306362"
       height="43.423603"
       x="76.755173"
       y="146.80006"
       rx="8" />
    <path
       d="m 101.45725,157.88951 -0.93818,9.2849 q -0.22646,2.42635 -0.22646,4.85271 0,4.6263 1.0676,5.62916 1.09996,0.9705 2.4911,0.9705 3.10572,0 3.68809,-3.91449 h 1.1969 q -1.06758,8.99374 -7.14965,8.99374 -6.373223,0 -6.373223,-7.31144 0,-3.6881 0.711727,-9.18778 l 1.197015,-9.3173 h -3.202793 q -2.652826,0 -4.140998,0.90585 -1.455819,0.8735 -2.71753,3.55861 h -1.16465 q 1.035257,-3.55861 2.458715,-5.62909 1.423465,-2.10288 2.717523,-2.8146 1.294065,-0.74407 3.849823,-0.74407 H 110.8392 v 4.7233 z"
       style="font-style:normal;font-weight:normal;font-size:400px;line-height:1.25;font-family:'Times New Roman';text-align:center;text-anchor:middle;fill:#4e3d92;fill-opacity:1;stroke:none;stroke-width:0.165641px;stroke-linecap:butt;stroke-linejoin:miter;stroke-opacity:1"
       id="path814" />
  </g>
</svg>
